<svg width="20" height="16" viewBox="0 0 20 16" fill="none" xmlns="http://www.w3.org/2000/svg">
<path d="M6.69037 14.7176C6.82852 14.9104 7.01064 15.0675 7.22163 15.1759C7.43262 15.2843 7.6664 15.3408 7.9036 15.3408C8.1408 15.3408 8.37458 15.2843 8.58557 15.1759C8.79656 15.0675 8.97868 14.9104 9.11683 14.7176L19.001 1.01305C19.1793 0.764299 19.001 0.416992 18.6959 0.416992H16.4947C16.016 0.416992 15.5608 0.646965 15.2792 1.0412L7.90595 11.2727L4.56429 6.63566C4.28269 6.24611 3.83213 6.01145 3.34872 6.01145H1.14755C0.842479 6.01145 0.664132 6.35875 0.842479 6.6075L6.69037 14.7176V14.7176Z" fill="black"/>
</svg>
